<svg width="262" height="312" viewBox="0 0 262 312" fill="none" xmlns="http://www.w3.org/2000/svg">
<path d="M2.30737 79.211L127.089 1V31.9289L52.4335 79.211H2.30737Z" fill="white"/>
<path d="M38.5688 238.122C38.6873 209.563 38.5688 162.399 38.5688 122.227C38.5688 108.355 57.9869 85.7402 80.1629 72.4564C96.6345 62.5896 114.647 53.9702 127.089 53.9702V77.078C102.328 80.8092 80.1552 100.723 73.2328 119.526C72.5797 121.3 72.3418 123.187 72.3418 125.077V170.22V196.528H127.089V219.28H72.3418V238.122H38.5688Z" fill="white"/>
<path d="M3.72939 285.759L32.1698 246.298H54.9221L38.2133 269.05C57.7661 270.117 97.5826 273.672 124.601 311C77.3899 277.725 24.3487 280.308 3.72939 285.759Z" fill="white"/>
<path d="M55.6331 262.651L67.0092 246.298H127.089V301.046C116.78 280.782 65.9427 261.585 55.6331 262.651Z" fill="white"/>
<path d="M2.30737 79.211L127.089 1V31.9289L52.4335 79.211H2.30737Z" stroke="white"/>
<path d="M38.5688 238.122C38.6873 209.563 38.5688 162.399 38.5688 122.227C38.5688 108.355 57.9869 85.7402 80.1629 72.4564C96.6345 62.5896 114.647 53.9702 127.089 53.9702V77.078C102.328 80.8092 80.1552 100.723 73.2328 119.526C72.5797 121.3 72.3418 123.187 72.3418 125.077V170.22V196.528H127.089V219.28H72.3418V238.122H38.5688Z" stroke="white"/>
<path d="M3.72939 285.759L32.1698 246.298H54.9221L38.2133 269.05C57.7661 270.117 97.5826 273.672 124.601 311C77.3899 277.725 24.3487 280.308 3.72939 285.759Z" stroke="white"/>
<path d="M55.6331 262.651L67.0092 246.298H127.089V301.046C116.78 280.782 65.9427 261.585 55.6331 262.651Z" stroke="white"/>
<path d="M83.0068 186.929H101.493V163.64C101.493 162.112 101.68 160.574 102.199 159.136C103.196 156.37 105.392 152.097 111.803 147.823C115.239 150.193 122.112 156.213 122.112 161.333V186.929H139.888V161.333C139.888 156.213 146.761 150.193 150.197 147.823C156.607 152.097 158.804 156.37 159.801 159.136C160.32 160.574 160.507 162.112 160.507 163.64V186.929H178.993V124.572C178.993 120.586 177.51 116.605 174.93 113.566C171.789 109.867 166.942 104.662 159.44 99.4748C154.299 95.9197 136.494 88.0986 131 88.0986C125.506 88.0986 107.701 95.9197 102.56 99.4748C95.0584 104.662 90.2107 109.867 87.0698 113.566C84.4902 116.605 83.0068 120.586 83.0068 124.572V186.929Z" fill="white" stroke="white"/>
<path d="M259.693 79.211L134.911 1V31.9289L209.566 79.211H259.693Z" fill="white"/>
<path d="M223.431 238.122C223.313 209.563 223.431 162.399 223.431 122.227C223.431 108.355 204.013 85.7402 181.837 72.4564C165.366 62.5896 147.353 53.9702 134.911 53.9702V77.078C159.672 80.8092 181.845 100.723 188.767 119.526C189.42 121.3 189.658 123.187 189.658 125.077V170.22V196.528H134.911V219.28H189.658V238.122H223.431Z" fill="white"/>
<path d="M258.271 285.759L229.83 246.298H207.078L223.787 269.05C204.234 270.117 164.417 273.672 137.399 311C184.61 277.725 237.651 280.308 258.271 285.759Z" fill="white"/>
<path d="M206.367 262.651L194.991 246.298H134.911V301.046C145.22 280.782 196.057 261.585 206.367 262.651Z" fill="white"/>
<path d="M259.693 79.211L134.911 1V31.9289L209.566 79.211H259.693Z" stroke="white"/>
<path d="M223.431 238.122C223.313 209.563 223.431 162.399 223.431 122.227C223.431 108.355 204.013 85.7402 181.837 72.4564C165.366 62.5896 147.353 53.9702 134.911 53.9702V77.078C159.672 80.8092 181.845 100.723 188.767 119.526C189.42 121.3 189.658 123.187 189.658 125.077V170.22V196.528H134.911V219.28H189.658V238.122H223.431Z" stroke="white"/>
<path d="M258.271 285.759L229.83 246.298H207.078L223.787 269.05C204.234 270.117 164.417 273.672 137.399 311C184.61 277.725 237.651 280.308 258.271 285.759Z" stroke="white"/>
<path d="M206.367 262.651L194.991 246.298H134.911V301.046C145.22 280.782 196.057 261.585 206.367 262.651Z" stroke="white"/>
</svg>
